<mxfile host="app.diagrams.net" modified="2022-05-12T05:15:53.044Z" agent="5.0 (Windows NT 10.0; Win64; x64) AppleWebKit/537.36 (KHTML, like Gecko) Chrome/101.0.4951.54 Safari/537.36" etag="ujwC-bM8twAG4sElzucD" version="18.0.3" type="github">
  <diagram name="Page-1" id="74e2e168-ea6b-b213-b513-2b3c1d86103e">
    <mxGraphModel dx="1422" dy="772" grid="0" gridSize="10" guides="1" tooltips="1" connect="1" arrows="1" fold="1" page="1" pageScale="1" pageWidth="1100" pageHeight="850" background="none" math="0" shadow="0">
      <root>
        <mxCell id="0" />
        <mxCell id="1" parent="0" />
        <mxCell id="77e6c97f196da883-1" value="Pool" style="swimlane;html=1;childLayout=stackLayout;startSize=20;rounded=0;shadow=0;labelBackgroundColor=none;strokeWidth=1;fontFamily=Verdana;fontSize=8;align=center;" parent="1" vertex="1">
          <mxGeometry y="20" width="1098" height="1098" as="geometry" />
        </mxCell>
        <mxCell id="77e6c97f196da883-2" value="SATT" style="swimlane;html=1;startSize=20;" parent="77e6c97f196da883-1" vertex="1">
          <mxGeometry y="20" width="183" height="1078" as="geometry" />
        </mxCell>
        <mxCell id="QMPjAonT9QGGnefhxJ4X-1" value="Register Plugins&lt;br&gt;(To &lt;font color=&quot;#0000ff&quot;&gt;PluginFactory&lt;/font&gt;)" style="rounded=1;whiteSpace=wrap;html=1;" vertex="1" parent="77e6c97f196da883-2">
          <mxGeometry x="9" y="33" width="165" height="44" as="geometry" />
        </mxCell>
        <mxCell id="QMPjAonT9QGGnefhxJ4X-2" value="Load Solution" style="rounded=1;whiteSpace=wrap;html=1;" vertex="1" parent="77e6c97f196da883-2">
          <mxGeometry x="9" y="98" width="165" height="44" as="geometry" />
        </mxCell>
        <mxCell id="QMPjAonT9QGGnefhxJ4X-18" value="Init Plugins" style="rounded=1;whiteSpace=wrap;html=1;" vertex="1" parent="77e6c97f196da883-2">
          <mxGeometry x="6" y="808" width="165" height="44" as="geometry" />
        </mxCell>
        <mxCell id="77e6c97f196da883-3" value="IPluginControl" style="swimlane;html=1;startSize=20;" parent="77e6c97f196da883-1" vertex="1">
          <mxGeometry x="183" y="20" width="185" height="1078" as="geometry" />
        </mxCell>
        <mxCell id="QMPjAonT9QGGnefhxJ4X-6" value="Register Sceanrio Types&lt;br&gt;(To &lt;font color=&quot;#0000ff&quot;&gt;TuningFactory&lt;/font&gt;)" style="rounded=1;whiteSpace=wrap;html=1;" vertex="1" parent="77e6c97f196da883-3">
          <mxGeometry x="10" y="220" width="165" height="44" as="geometry" />
        </mxCell>
        <mxCell id="QMPjAonT9QGGnefhxJ4X-19" value="bind scenario" style="rounded=1;whiteSpace=wrap;html=1;" vertex="1" parent="77e6c97f196da883-3">
          <mxGeometry x="10" y="810" width="165" height="44" as="geometry" />
        </mxCell>
        <mxCell id="QMPjAonT9QGGnefhxJ4X-20" value="initialize control UI background" style="rounded=1;whiteSpace=wrap;html=1;" vertex="1" parent="77e6c97f196da883-3">
          <mxGeometry x="10" y="873" width="165" height="44" as="geometry" />
        </mxCell>
        <mxCell id="77e6c97f196da883-4" value="ITunginContext" style="swimlane;html=1;startSize=20;" parent="77e6c97f196da883-1" vertex="1">
          <mxGeometry x="368" y="20" width="190" height="1078" as="geometry" />
        </mxCell>
        <mxCell id="QMPjAonT9QGGnefhxJ4X-3" value="Unzip SAF file" style="rounded=1;whiteSpace=wrap;html=1;" vertex="1" parent="77e6c97f196da883-4">
          <mxGeometry x="12" y="98" width="165" height="44" as="geometry" />
        </mxCell>
        <mxCell id="QMPjAonT9QGGnefhxJ4X-4" value="Load Project Stream&lt;br&gt;(IConfigurationStream)" style="rounded=1;whiteSpace=wrap;html=1;" vertex="1" parent="77e6c97f196da883-4">
          <mxGeometry x="13" y="159" width="165" height="44" as="geometry" />
        </mxCell>
        <mxCell id="QMPjAonT9QGGnefhxJ4X-5" value="Parse scenario table&lt;br&gt;(index.xml)" style="rounded=1;whiteSpace=wrap;html=1;" vertex="1" parent="77e6c97f196da883-4">
          <mxGeometry x="12.5" y="220" width="165" height="44" as="geometry" />
        </mxCell>
        <mxCell id="77e6c97f196da883-5" value="ITuningProject" style="swimlane;html=1;startSize=20;" parent="77e6c97f196da883-1" vertex="1">
          <mxGeometry x="558" y="20" width="180" height="1078" as="geometry" />
        </mxCell>
        <mxCell id="QMPjAonT9QGGnefhxJ4X-8" value="Load Scenarios" style="rounded=1;whiteSpace=wrap;html=1;" vertex="1" parent="77e6c97f196da883-5">
          <mxGeometry x="7.5" y="280" width="165" height="44" as="geometry" />
        </mxCell>
        <mxCell id="77e6c97f196da883-6" value="ITuningScenario" style="swimlane;html=1;startSize=20;" parent="77e6c97f196da883-1" vertex="1">
          <mxGeometry x="738" y="20" width="180" height="1078" as="geometry" />
        </mxCell>
        <mxCell id="QMPjAonT9QGGnefhxJ4X-9" value="Pre Load sync" style="rounded=1;whiteSpace=wrap;html=1;" vertex="1" parent="77e6c97f196da883-6">
          <mxGeometry x="7.5" y="280" width="165" height="44" as="geometry" />
        </mxCell>
        <mxCell id="QMPjAonT9QGGnefhxJ4X-10" value="Load path.xml&lt;br&gt;(IBatchcopyScenario)" style="rounded=1;whiteSpace=wrap;html=1;" vertex="1" parent="77e6c97f196da883-6">
          <mxGeometry x="7.5" y="342" width="165" height="44" as="geometry" />
        </mxCell>
        <mxCell id="QMPjAonT9QGGnefhxJ4X-11" value="Load interfaces.xml&lt;br&gt;(IDeviceCommandAction)" style="rounded=1;whiteSpace=wrap;html=1;" vertex="1" parent="77e6c97f196da883-6">
          <mxGeometry x="7.5" y="408" width="165" height="44" as="geometry" />
        </mxCell>
        <mxCell id="QMPjAonT9QGGnefhxJ4X-12" value="Load simulator&lt;br&gt;(ISimulatorHelper)" style="rounded=1;whiteSpace=wrap;html=1;" vertex="1" parent="77e6c97f196da883-6">
          <mxGeometry x="7.5" y="474" width="165" height="44" as="geometry" />
        </mxCell>
        <mxCell id="QMPjAonT9QGGnefhxJ4X-13" value="Load components" style="rounded=1;whiteSpace=wrap;html=1;" vertex="1" parent="77e6c97f196da883-6">
          <mxGeometry x="7.5" y="540" width="165" height="44" as="geometry" />
        </mxCell>
        <mxCell id="QMPjAonT9QGGnefhxJ4X-17" value="Load Topology" style="rounded=1;whiteSpace=wrap;html=1;" vertex="1" parent="77e6c97f196da883-6">
          <mxGeometry x="7.5" y="728" width="165" height="44" as="geometry" />
        </mxCell>
        <mxCell id="77e6c97f196da883-7" value="ITuningComponent" style="swimlane;html=1;startSize=20;" parent="77e6c97f196da883-1" vertex="1">
          <mxGeometry x="918" y="20" width="174" height="1078" as="geometry" />
        </mxCell>
        <mxCell id="QMPjAonT9QGGnefhxJ4X-14" value="Load parameter configuratin&lt;br&gt;(IDataSource)" style="rounded=1;whiteSpace=wrap;html=1;" vertex="1" parent="77e6c97f196da883-7">
          <mxGeometry x="4.5" y="540" width="165" height="44" as="geometry" />
        </mxCell>
        <mxCell id="QMPjAonT9QGGnefhxJ4X-15" value="Load parameter bin" style="rounded=1;whiteSpace=wrap;html=1;" vertex="1" parent="77e6c97f196da883-7">
          <mxGeometry x="4.5" y="601" width="165" height="44" as="geometry" />
        </mxCell>
        <mxCell id="QMPjAonT9QGGnefhxJ4X-16" value="Load algorithm&lt;br&gt;(ITuningAlgorithm)" style="rounded=1;whiteSpace=wrap;html=1;" vertex="1" parent="77e6c97f196da883-7">
          <mxGeometry x="4.5" y="662" width="165" height="44" as="geometry" />
        </mxCell>
      </root>
    </mxGraphModel>
  </diagram>
</mxfile>
